HIERARCHY
ROOT Hips
{
	OFFSET 0.000000 0.000000 0.000000 
	CHANNELS 6 Xposition Yposition Zposition Zrotation Yrotation Xrotation
	JOINT LeftUpLeg
	{
		OFFSET 1.363060 -1.794630 0.839290 
		CHANNELS 3 Zrotation Yrotation Xrotation
		JOINT LeftLeg
		{
			OFFSET 2.448110 -6.726130 0.000000 
			CHANNELS 3 Zrotation Yrotation Xrotation
			JOINT LeftFoot
			{
				OFFSET 2.562200 -7.039590 0.000000 
				CHANNELS 3 Zrotation Yrotation Xrotation
				JOINT LeftToeBase
				{
					OFFSET 0.157640 -0.433110 2.322550 
					CHANNELS 3 Zrotation Yrotation Xrotation
					End Site
					{
						OFFSET 0.000000 0.000000 0.000000 
					}
				}
			}
		}
	}
	JOINT RightUpLeg
	{
		OFFSET -1.305520 -1.794630 0.839290 
		CHANNELS 3 Zrotation Yrotation Xrotation
		JOINT RightLeg
		{
			OFFSET -2.542530 -6.985550 0.000000 
			CHANNELS 3 Zrotation Yrotation Xrotation
			JOINT RightFoot
			{
				OFFSET -2.568260 -7.056230 0.000000 
				CHANNELS 3 Zrotation Yrotation Xrotation
				JOINT RightToeBase
				{
					OFFSET -0.164730 -0.452590 2.363150 
					CHANNELS 3 Zrotation Yrotation Xrotation
					End Site
					{
						OFFSET 0.000000 0.000000 0.000000 
					}
				}
			}
		}
	}
	JOINT Spine
	{
		OFFSET 0.028270 2.035590 -0.193380 
		CHANNELS 3 Zrotation Yrotation Xrotation
		JOINT Spine1
		{
			OFFSET 0.056720 2.048850 -0.042750 
			CHANNELS 3 Zrotation Yrotation Xrotation
			JOINT Neck1
			{
				OFFSET -0.054170 1.746240 0.172020 
				CHANNELS 3 Zrotation Yrotation Xrotation
				JOINT Head
				{
					OFFSET 0.104070 1.761360 -0.123970 
					CHANNELS 3 Zrotation Yrotation Xrotation
					End Site
					{
						OFFSET 0.000000 0.000000 0.000000 
					}
				}
			}
			JOINT LeftArm
			{
				OFFSET 3.362410 1.200890 -0.311210 
				CHANNELS 3 Zrotation Yrotation Xrotation
				JOINT LeftForeArm
				{
					OFFSET 4.983000 -0.000000 -0.000000 
					CHANNELS 3 Zrotation Yrotation Xrotation
					JOINT LeftHand
					{
						OFFSET 3.483560 -0.000000 -0.000000 
						CHANNELS 3 Zrotation Yrotation Xrotation
						JOINT LeftHandIndex1
						{
							OFFSET 0.715260 -0.000000 -0.000000 
							CHANNELS 3 Zrotation Yrotation Xrotation
							End Site
							{
								OFFSET 0.000000 0.000000 0.000000 
							}
						}
					}
				}
			}
			JOINT RightArm
			{
				OFFSET -3.136600 1.374050 -0.404650 
				CHANNELS 3 Zrotation Yrotation Xrotation
				JOINT RightForeArm
				{
					OFFSET -5.241900 -0.000000 -0.000000 
					CHANNELS 3 Zrotation Yrotation Xrotation
					JOINT RightHand
					{
						OFFSET -3.444170 -0.000000 -0.000000 
						CHANNELS 3 Zrotation Yrotation Xrotation
						JOINT RightHandIndex1
						{
							OFFSET -0.622530 -0.000000 -0.000000 
							CHANNELS 3 Zrotation Yrotation Xrotation
							End Site
							{
								OFFSET 0.000000 0.000000 0.000000 
							}
						}
					}
				}
			}
		}
	}
}
MOTION
Frames: 9
Frame Time: 0.041667
7.310519 17.485488 -4.242363 -3.918481 23.191327 8.731354 -10.049743 -15.303656 -32.018132 0.127607 12.144502 30.819309 0.584206 -1.079988 0.237886 0.996300 -6.352300 -17.810200 22.523554 14.595606 -10.831300 -0.710080 -10.197110 33.284897 3.269627 -24.079370 -23.770196 -0.387300 -3.996300 11.066200 -0.019489 2.146222 -1.725664 -0.978117 1.466145 -2.362821 5.311507 10.861750 -3.180551 1.380400 5.433900 -2.267600 -11.577596 10.036713 4.506890 9.042618 -12.947807 -2.928366 -1.922906 -3.388378 33.276489 -7.125000 0.000000 0.000000 8.075174 -25.348270 38.005242 -13.775660 15.136481 -2.016897 -0.748686 -0.663159 -23.139663 7.125000 0.000000 0.000000 
7.402111 17.486143 -4.237560 -3.754666 22.616008 8.968001 -10.529454 -15.005654 -32.179773 0.189069 12.266579 31.187911 0.536550 -0.843929 -0.186939 1.026000 -6.443300 -18.076300 21.966396 14.806851 -11.022051 -0.732964 -10.236327 33.323772 3.225420 -23.713724 -23.421442 -0.433100 -4.223200 11.705600 -0.037776 2.172257 -1.718516 -1.001132 1.475639 -2.481956 4.862340 11.068210 -3.771681 0.948500 5.434200 -2.709200 -11.434768 10.158161 5.013971 9.020570 -12.981248 -2.927634 -1.869642 -3.459075 32.629134 -7.125000 0.000000 0.000000 8.315529 -25.138671 37.246974 -13.722413 15.052821 -2.009045 -0.774405 -0.655035 -22.574998 7.125000 0.000000 0.000000 
7.495231 17.490728 -4.234612 -3.872399 22.137522 9.049882 -10.762702 -14.669209 -32.316973 0.249603 12.376627 31.517621 0.481604 -0.517347 -0.731466 1.359100 -7.379300 -20.844100 21.742816 15.122823 -11.184486 -0.775393 -10.296745 33.413448 3.386742 -23.919898 -22.650540 -0.476400 -4.426600 12.280200 -0.057410 2.292728 -1.774866 -0.997207 1.534483 -2.263311 5.717834 10.682178 -2.806984 1.701300 5.409800 -1.959900 -11.282880 10.074306 5.687847 9.044006 -12.975557 -2.958483 -1.880130 -3.475381 31.920152 -7.125000 0.000000 0.000000 8.487008 -25.146471 36.942202 -13.684879 14.964801 -2.013906 -0.793871 -0.667912 -22.417822 7.125000 0.000000 0.000000 
7.587914 17.499243 -4.230682 -3.893285 21.592273 8.977702 -11.074691 -14.477510 -32.179991 0.316477 12.464628 31.865550 0.404160 -0.086260 -1.326225 1.605900 -7.991700 -22.689000 21.447428 15.448026 -11.151493 -0.834550 -10.343164 33.522607 3.573895 -24.162882 -21.734770 -0.536600 -4.693900 13.037500 -0.062603 2.405354 -1.794045 -0.938322 1.588061 -2.263427 6.032203 10.520839 -2.392578 1.965200 5.387600 -1.626600 -11.148903 10.134375 6.394627 9.115935 -13.055705 -2.979597 -1.865289 -3.486679 31.224032 -7.125000 0.000000 0.000000 8.480425 -25.193826 37.456762 -13.708556 14.992616 -2.027562 -0.784236 -0.695750 -22.932616 7.125000 0.000000 0.000000 
7.681362 17.509505 -4.228390 -3.791389 20.945684 9.017374 -11.517560 -14.182467 -32.114155 0.383237 12.554475 32.219916 0.341925 0.233249 -1.727280 1.620800 -8.027100 -22.796500 20.920189 15.726704 -11.216779 -0.860228 -10.384440 33.628538 3.195834 -22.881065 -21.950062 -0.958100 -6.232700 17.461200 -0.058880 2.414186 -1.804664 -0.844586 1.589583 -2.346408 6.084608 10.540580 -2.364169 1.990700 5.399700 -1.595500 -11.152169 10.396940 6.713564 9.146951 -13.100628 -2.988754 -1.832349 -3.511145 30.843848 -7.125000 0.000000 0.000000 8.326332 -24.953452 38.201065 -13.760173 15.065727 -2.030982 -0.742550 -0.723804 -23.578082 7.125000 0.000000 0.000000 
7.773608 17.520312 -4.226861 -3.902190 20.366060 9.151482 -11.682634 -13.839669 -32.235191 0.449604 12.636448 32.497976 0.425288 -0.190974 -1.849278 1.078900 -6.602300 -18.542200 20.638107 15.898073 -11.483972 -0.901076 -10.459570 33.760769 3.119894 -22.439134 -21.585256 -1.056700 -6.536000 18.347700 -0.038367 2.436363 -1.816407 -0.824200 1.598450 -2.315355 6.130675 10.494771 -2.353248 2.044800 5.387600 -1.549500 -11.265001 10.505029 6.278722 9.129127 -13.063930 -2.986106 -1.822965 -3.518177 31.179200 -7.125000 0.000000 0.000000 8.320515 -24.843473 38.471069 -13.785172 15.113415 -2.046698 -0.718019 -0.761483 -23.546786 7.125000 0.000000 0.000000 
7.861707 17.532103 -4.224569 -3.989242 19.909234 9.252626 -11.866270 -13.608296 -32.304531 0.502316 12.706423 32.736527 0.466225 -0.376715 -2.127918 0.845500 -5.864900 -16.393000 20.412986 16.116377 -11.692538 -0.975271 -10.551227 33.933688 3.413381 -23.029497 -20.460262 -0.810800 -5.746400 16.050200 -0.017423 2.507301 -1.813864 -0.746418 1.630714 -2.253561 6.125329 10.409566 -2.317570 2.044700 5.348700 -1.478500 -11.230098 10.380985 5.951547 9.085883 -13.006297 -2.976025 -1.825953 -3.528902 31.372574 -7.125000 0.000000 0.000000 8.456335 -25.002312 38.432159 -13.797516 15.136388 -2.076023 -0.736325 -0.788166 -23.358131 7.125000 0.000000 0.000000 
7.949914 17.536578 -4.221403 -3.947491 19.444812 9.361385 -12.301638 -13.271854 -32.389610 0.536368 12.781218 32.981990 0.340540 0.283465 -2.502210 1.298800 -7.220200 -20.369400 20.039755 16.440961 -11.894690 -1.033251 -10.642576 34.112073 3.458358 -23.000574 -20.002307 -0.932500 -6.151200 17.223800 -0.005273 2.502367 -1.793384 -0.631959 1.624455 -2.125392 6.188489 10.359990 -2.259136 2.084400 5.331800 -1.416300 -11.191047 10.364700 5.725385 9.092059 -13.016021 -2.981356 -1.819224 -3.547593 31.331395 -7.125000 0.000000 0.000000 8.556631 -24.925936 37.973654 -13.850494 15.142846 -2.068850 -0.757791 -0.747483 -23.304737 7.125000 0.000000 0.000000 
8.041506 17.541273 -4.216709 -3.843481 18.882988 9.624491 -12.730392 -12.939868 -32.543584 0.570764 12.844624 33.192959 0.315337 0.411726 -2.712137 1.415300 -7.524100 -21.277700 19.539412 16.652460 -12.375795 -1.089343 -10.761413 34.283115 3.522722 -22.987919 -19.404839 -1.082200 -6.612100 18.571200 0.005812 2.442118 -1.789605 -0.498625 1.592551 -1.989025 6.301910 10.423646 -2.329557 2.178400 5.375600 -1.440600 -11.258705 10.575340 5.625937 9.120193 -13.057503 -2.995771 -1.803679 -3.564927 31.136738 -7.125000 0.000000 0.000000 8.550891 -24.665676 37.503011 -13.917728 15.157950 -2.044556 -0.757553 -0.688537 -23.199012 7.125000 0.000000 0.000000 
